<svg width="1024" height="1024" viewBox="0 0 1024 1024" fill="none" xmlns="http://www.w3.org/2000/svg">
  <defs>
    <linearGradient id="bg" x1="128" y1="72" x2="896" y2="952" gradientUnits="userSpaceOnUse">
      <stop offset="0" stop-color="#F7FCFF"/><stop offset="1" stop-color="#EAF6FF"/>
    </linearGradient>
    <filter id="softShadow" x="120" y="160" width="800" height="700" filterUnits="userSpaceOnUse" color-interpolation-filters="sRGB">
      <feDropShadow dx="0" dy="20" stdDeviation="28" flood-color="#0068FF" flood-opacity="0.20"/>
    </filter>
    <filter id="chipShadow" x="580" y="290" width="320" height="380" filterUnits="userSpaceOnUse" color-interpolation-filters="sRGB">
      <feDropShadow dx="0" dy="14" stdDeviation="18" flood-color="#0B2250" flood-opacity="0.15"/>
    </filter>
  </defs>
  <rect x="64" y="64" width="896" height="896" rx="212" fill="url(#bg)"/>
  <rect x="64" y="64" width="896" height="896" rx="212" stroke="#D9F0FF" stroke-width="8"/>
  <g filter="url(#softShadow)">
    <path d="M230 255 L600 255 L600 341 L350 599 L600 599 L600 685 L230 685 L230 599 L480 341 L230 341 Z" fill="#0068FF" stroke="#0068FF" stroke-width="6" stroke-linejoin="round"/>
    <circle cx="375" cy="642" r="12" fill="white" fill-opacity="0.92"/>
    <circle cx="415" cy="642" r="12" fill="white" fill-opacity="0.92"/>
    <circle cx="455" cy="642" r="12" fill="white" fill-opacity="0.92"/>
  </g>
  <g filter="url(#chipShadow)">
    <rect x="640" y="340" width="172" height="86" rx="43" fill="#FF5A3F"/>
    <rect x="640" y="426" width="86" height="86" rx="43" fill="#8E45FF"/>
    <rect x="726" y="426" width="86" height="86" rx="43" fill="#18BDF5"/>
    <rect x="640" y="512" width="86" height="86" rx="43" fill="#13C98B"/>
    <rect x="726" y="512" width="86" height="86" rx="43" fill="#0077FF" fill-opacity="0.10"/>
  </g>
</svg>
